<?xml version="1.0" encoding="iso-8859-1"?>
<!-- Generator: Adobe Illustrator 23.0.2, SVG Export Plug-In . SVG Version: 6.00 Build 0)  -->
<svg version="1.1" id="_x33__Auction" xmlns="http://www.w3.org/2000/svg" xmlns:xlink="http://www.w3.org/1999/xlink" x="0px"
	 y="0px" viewBox="0 0 3872.983 3872.983" style="enable-background:new 0 0 3872.983 3872.983;" xml:space="preserve">
<g>
	<path d="M3365.24,3008.092h-116.955v-263.149c0-32.297-26.184-58.478-58.478-58.478h-87.716v-263.149
		c0-32.297-26.184-58.478-58.478-58.478H1757.109c-32.297,0-58.478,26.181-58.478,58.478v263.149h-87.716
		c-32.297,0-58.478,26.181-58.478,58.478v263.149h-116.955c-32.297,0-58.478,26.181-58.478,58.478s26.181,58.478,58.478,58.478
		h175.433h1578.891h175.433c32.294,0,58.478-26.181,58.478-58.478S3397.534,3008.092,3365.24,3008.092z M1815.587,2481.794h1169.549
		v204.671H1815.587V2481.794z M1669.393,3008.092V2803.42h1461.936v204.672H1669.393z"/>
	<path d="M1906.458,2046.91l-82.697,82.697c-22.834,22.837-22.834,59.865,0,82.702c11.419,11.418,26.386,17.126,41.351,17.126
		s29.933-5.708,41.351-17.126l599.572-599.572c22.837-22.837,22.837-59.865,0-82.702c-22.843-22.837-59.86-22.837-82.702,0
		l-62.023,62.023l-144.695-144.695c-0.01-0.01-0.017-0.02-0.027-0.03l-196.414-196.411l-341.134-341.134l62.024-62.024
		c22.834-22.837,22.837-59.865,0-82.702c-22.84-22.831-59.862-22.831-82.702,0l-599.575,599.572
		c-22.834,22.837-22.837,59.865,0,82.702c11.421,11.419,26.383,17.126,41.351,17.126c14.965,0,29.933-5.711,41.351-17.126
		l82.699-82.699l144.709,144.711c0.006,0.005,0.009,0.01,0.014,0.015l82.698,82.698l-868.318,868.318
		c-0.01,0.01-0.02,0.017-0.03,0.027c-0.01,0.01-0.017,0.02-0.027,0.03l-82.672,82.673c-68.397,68.4-68.397,179.699,0,248.102
		c34.201,34.198,79.127,51.299,124.054,51.299c44.923,0,89.849-17.101,124.051-51.299l951.046-951.046L1906.458,2046.91z
		 M2092.534,1488.684l-289.445,289.452l-61.997-61.997c-0.01-0.01-0.017-0.02-0.027-0.03s-0.02-0.017-0.03-0.027l-165.315-165.316
		c-0.019-0.019-0.035-0.04-0.054-0.059c-0.019-0.019-0.04-0.035-0.059-0.054l-82.643-82.643l289.45-289.449L2092.534,1488.684z
		 M2133.884,1819.484l-144.725,144.725l-103.372-103.373l289.448-289.451l103.372,103.372L2133.884,1819.484z M1596.34,992.487
		l103.372,103.373l-289.45,289.45l-103.374-103.374L1596.34,992.487z M790.018,2584.456l-82.702-82.702l661.597-661.596
		l82.701,82.699L790.018,2584.456z M583.266,2708.509c-22.8-22.803-22.8-59.903-0.003-82.702l41.35-41.35l82.702,82.702
		l-41.35,41.35C643.169,2731.308,606.069,2731.308,583.266,2708.509z M1534.313,1840.158l-82.701-82.699l82.699-82.699
		l31.012,31.012l51.688,51.688L1534.313,1840.158z"/>
</g>
</svg>
